<svg xmlns="http://www.w3.org/2000/svg" width="128" height="128" viewBox="0 0 128 128" role="img" aria-label="Meetify logo">
  <defs>
    <linearGradient id="g" x1="18" y1="14" x2="110" y2="114" gradientUnits="userSpaceOnUse">
      <stop offset="0" stop-color="#5B7CFF"/>
      <stop offset="0.55" stop-color="#7B4DFF"/>
      <stop offset="1" stop-color="#FF4DB8"/>
    </linearGradient>
    <filter id="s" x="-30%" y="-30%" width="160%" height="160%">
      <feDropShadow dx="0" dy="6" stdDeviation="6" flood-opacity="0.25"/>
    </filter>
  </defs>

  <!-- Rounded square -->
  <rect x="14" y="14" width="100" height="100" rx="24" fill="url(#g)" filter="url(#s)"/>

  <!-- Camera body -->
  <path d="M38 50c0-4.4 3.6-8 8-8h34c4.4 0 8 3.6 8 8v28c0 4.4-3.6 8-8 8H46c-4.4 0-8-3.6-8-8V50z" fill="rgba(255,255,255,0.18)"/>

  <!-- Play/meeting lens -->
  <path d="M88 58l14-8v28l-14-8v-12z" fill="rgba(255,255,255,0.22)"/>

  <!-- "M" monogram -->
  <path d="M44 82V50h10l10 15 10-15h10v32h-10V66l-10 14h-0.2L54 66v16H44z"
        fill="#fff"/>
</svg>
